# File created by Blade
# Date/Time:  Tue Jan 27 20:08:00 2015
#---------------------------------------------------------
:version 1.10
:name HOM
:units
  mass 1.0
  length 1.000000
  angle deg
:documentation
     Acclaim Skeleton File
:root
   axis xyz
   order TX TY TZ RX RY RZ
   position 0.000000 0.000000 0.000000
   orientation 0 0 0
:bonedata
   begin
      id 1
      name Spine_dum
      direction 0.000000 1.000000 0.000000
      length 6.116652
      axis 0.0 0.0 0.0 xyz
   end
   begin
      id 2
      name LeftUpLeg_dum
      direction 1.000000 0.000000 0.000000
      length 4.711765
      axis 0.0 0.0 0.0 xyz
   end
   begin
      id 3
      name RightUpLeg_dum
      direction -1.000000 0.000000 0.000000
      length 4.711765
      axis 0.0 0.0 0.0 xyz
   end
   begin
      id 4
      name Spine
      direction 0.000000 1.000000 0.000000
      length 0.000000
      axis 0.0 0.0 0.0 xyz
      dof rx ry rz
   end
   begin
      id 5
      name Spine_dum1
      direction 0.000000 1.000000 0.000000
      length 15.225563
      axis 0.0 0.0 0.0 xyz
   end
   begin
      id 6
      name Spine_dum2
      direction 0.000000 1.000000 0.000000
      length 8.977654
      axis 0.0 0.0 0.0 xyz
   end
   begin
      id 7
      name Spine_dum3
      direction 0.000000 1.000000 0.000000
      length 8.977654
      axis 0.0 0.0 0.0 xyz
   end
   begin
      id 8
      name Head
      direction 0.000000 1.000000 0.000000
      length 4.527550
      axis 0.0 0.0 0.0 xyz
      dof rx ry rz
   end
   begin
      id 9
      name LeftShoulder
      direction 1.000000 0.000000 0.000000
      length 7.110130
      axis 0.0 0.0 -90.0 xyz
      dof rx ry rz
   end
   begin
      id 10
      name LeftArm
      direction 1.000000 0.000000 0.000000
      length 10.398341
      axis 0.0 0.0 -90.0 xyz
      dof rx ry rz
   end
   begin
      id 11
      name LeftForeArm
      direction 1.000000 0.000000 0.000000
      length 8.888997
      axis 0.0 0.0 -90.0 xyz
      dof ry rz rx
   end
   begin
      id 12
      name LeftHand
      direction 0.000000 0.000000 0.000000
      length 0.000000
      axis 0.0 0.0 -90.0 xyz
      dof rx ry rz
   end
   begin
      id 13
      name LeftHand_dum1
      direction 0.000000 0.000000 0.000000
      length 0.000000
      axis 0.0 0.0 -90.0 xyz
   end
   begin
      id 14
      name LeftHand_dum2
      direction 1.000000 0.000000 0.000000
      length 3.937000
      axis 0.0 0.0 -90.0 xyz
   end
   begin
      id 15
      name LeftHandThumb1
      direction 0.000000 0.000000 1.000000
      length 3.937000
      axis 0.0 0.0 -90.0 xyz
      dof rx rz ry
   end
   begin
      id 16
      name RightShoulder
      direction -1.000000 0.000000 0.000000
      length 7.110130
      axis 0.0 0.0 90.0 xyz
      dof rx ry rz
   end
   begin
      id 17
      name RightArm
      direction -1.000000 0.000000 0.000000
      length 10.398341
      axis 0.0 0.0 90.0 xyz
      dof rx ry rz
   end
   begin
      id 18
      name RightForeArm
      direction -1.000000 0.000000 0.000000
      length 8.888997
      axis 0.0 0.0 90.0 xyz
      dof ry rz rx
   end
   begin
      id 19
      name RightHand
      direction 0.000000 0.000000 0.000000
      length 0.000000
      axis 0.0 0.0 90.0 xyz
      dof rx ry rz
   end
   begin
      id 20
      name RightHand_dum1
      direction 0.000000 0.000000 0.000000
      length 0.000000
      axis 0.0 0.0 90.0 xyz
   end
   begin
      id 21
      name RightHand_dum2
      direction -1.000000 0.000000 0.000000
      length 3.937000
      axis 0.0 0.0 90.0 xyz
   end
   begin
      id 22
      name RightHandThumb1
      direction 0.000000 0.000000 1.000000
      length 3.937000
      axis 0.0 0.0 90.0 xyz
      dof rx rz ry
   end
   begin
      id 23
      name LeftUpLeg
      direction 0.000000 -1.000000 0.000000
      length 15.510451
      axis 0.0 0.0 0.0 xyz
      dof rx ry rz
   end
   begin
      id 24
      name LeftLeg
      direction 0.000000 -1.000000 0.000000
      length 14.858061
      axis 0.0 0.0 0.0 xyz
      dof rx ry rz
   end
   begin
      id 25
      name LeftFoot
      direction 0.000000 -0.258819 0.965926
      length 5.128852
      axis 15.0 0.0 0.0 xyz
      dof rx ry rz
   end
   begin
      id 26
      name LeftToeBase
      direction 0.000000 0.000000 1.000000
      length 2.952750
      axis 0.0 0.0 0.0 xyz
      dof rx ry rz
   end
   begin
      id 27
      name RightUpLeg
      direction 0.000000 -1.000000 0.000000
      length 15.510451
      axis 0.0 0.0 0.0 xyz
      dof rx ry rz
   end
   begin
      id 28
      name RightLeg
      direction 0.000000 -1.000000 0.000000
      length 14.858061
      axis 0.0 0.0 0.0 xyz
      dof rx ry rz
   end
   begin
      id 29
      name RightFoot
      direction 0.000000 -0.258819 0.965926
      length 5.128852
      axis 15.0 0.0 0.0 xyz
      dof rx ry rz
   end
   begin
      id 30
      name RightToeBase
      direction 0.000000 0.000000 1.000000
      length 2.952750
      axis 0.0 0.0 0.0 xyz
      dof rx ry rz
   end
:hierarchy
   begin
      root Spine_dum LeftUpLeg_dum RightUpLeg_dum
      Spine_dum Spine
      LeftUpLeg_dum LeftUpLeg
      RightUpLeg_dum RightUpLeg
      Spine Spine_dum1 Spine_dum2 Spine_dum3
      Spine_dum1 Head
      Spine_dum2 LeftShoulder
      Spine_dum3 RightShoulder
      LeftShoulder LeftArm
      LeftArm LeftForeArm
      LeftForeArm LeftHand
      LeftHand LeftHand_dum1 LeftHand_dum2
      LeftHand_dum1 LeftHandThumb1
      RightShoulder RightArm
      RightArm RightForeArm
      RightForeArm RightHand
      RightHand RightHand_dum1 RightHand_dum2
      RightHand_dum1 RightHandThumb1
      LeftUpLeg LeftLeg
      LeftLeg LeftFoot
      LeftFoot LeftToeBase
      RightUpLeg RightLeg
      RightLeg RightFoot
      RightFoot RightToeBase
   end

# File created by Blade
# Date/Time:  Tue Jan 27 20:07:51 2015
# Frame Rate: 120.000 fps
#------------------------------------------------------
:FULLY-SPECIFIED
:DEGREES
513
root 8.227372 32.360777 -4.617453 -4.637571 44.660840 -1.930910
Spine 2.824789 -9.413768 -4.733984
Head 7.363382 -17.749922 7.884430
LeftShoulder -9.875316 -7.962179 31.020976
LeftArm 1.072677 3.089638 -87.036508
LeftForeArm -7.935645 -0.000000 114.038991
LeftHand 11.279620 -0.000000 12.088736
LeftHandThumb1 -26.253704 0.000000 33.147579
RightShoulder -20.846265 -17.629456 -21.731839
RightArm 8.878831 -23.760630 95.102228
RightForeArm -14.536887 -0.000000 23.125970
RightHand 16.362945 -0.000000 3.524660
RightHandThumb1 -24.326973 -0.000000 -32.862282
LeftUpLeg 8.950681 -15.999703 -8.580563
LeftLeg 0.998850 -0.000000 -0.000000
LeftFoot -13.906465 6.580068 -17.885342
LeftToeBase 20.382988 -0.000000 -0.000000
RightUpLeg -32.220336 13.532708 10.797111
RightLeg 106.448563 -0.000000 -0.000000
RightFoot 8.298405 -16.039651 16.979914
RightToeBase 14.617973 -0.000000 -0.000000
514
root 8.230034 32.360256 -4.601823 -4.741315 44.625910 -1.982776
Spine 2.908754 -9.392814 -4.766382
Head 7.364315 -17.855087 7.926466
LeftShoulder -9.876798 -7.966358 31.058861
LeftArm 1.126520 3.164263 -87.074480
LeftForeArm -7.872697 -0.000000 114.077855
LeftHand 11.169617 -0.000000 12.025176
LeftHandThumb1 -26.253704 0.000000 33.147579
RightShoulder -20.852371 -17.666326 -21.730434
RightArm 8.866787 -23.728108 95.127619
RightForeArm -14.470966 -0.000000 23.091546
RightHand 16.366935 -0.000000 3.504799
RightHandThumb1 -24.326973 -0.000000 -32.862282
LeftUpLeg 9.001458 -15.838983 -8.533801
LeftLeg 1.080027 -0.000000 -0.000000
LeftFoot -13.883558 6.469949 -17.674234
LeftToeBase 20.567598 -0.000000 -0.000000
RightUpLeg -32.416426 13.639900 10.679441
RightLeg 104.486855 -0.000000 -0.000000
RightFoot 7.175307 -15.701216 16.835478
RightToeBase 14.488509 -0.000000 -0.000000
515
root 8.237515 32.360441 -4.586032 -4.844403 44.575534 -2.009305
Spine 2.997206 -9.358620 -4.810963
Head 7.396323 -17.959459 7.953508
LeftShoulder -9.860102 -7.987162 31.105862
LeftArm 1.144747 3.210111 -87.122867
LeftForeArm -7.812801 -0.000000 114.093107
LeftHand 11.090395 -0.000000 12.002778
LeftHandThumb1 -26.253704 0.000000 33.147579
RightShoulder -20.853296 -17.724975 -21.724091
RightArm 8.880365 -23.703009 95.127453
RightForeArm -14.434855 -0.000000 23.056576
RightHand 16.354391 -0.000000 3.491130
RightHandThumb1 -24.326973 -0.000000 -32.862282
LeftUpLeg 9.116049 -15.763862 -8.548057
LeftLeg 1.064396 -0.000000 -0.000000
LeftFoot -13.701874 6.600883 -17.246407
LeftToeBase 19.855415 -0.000000 -0.000000
RightUpLeg -32.593012 13.749254 10.583715
RightLeg 102.481208 -0.000000 -0.000000
RightFoot 6.159641 -15.813487 17.198023
RightToeBase 13.010325 -0.000000 -0.000000
516
root 8.237818 32.360620 -4.570997 -4.922421 44.531428 -2.052360
Spine 3.052419 -9.245328 -4.861371
Head 7.438551 -18.169420 8.033699
LeftShoulder -9.748913 -8.039817 31.187832
LeftArm 1.173179 3.235537 -87.189732
LeftForeArm -7.720711 -0.000000 114.072885
LeftHand 11.084939 -0.000000 12.169719
LeftHandThumb1 -26.253704 0.000000 33.147579
RightShoulder -20.926426 -17.781016 -21.668678
RightArm 8.866852 -23.730217 95.110301
RightForeArm -14.401076 -0.000000 23.027024
RightHand 16.317814 -0.000000 3.398391
RightHandThumb1 -24.326973 -0.000000 -32.862282
LeftUpLeg 9.178788 -15.737228 -8.533635
LeftLeg 1.070030 -0.000000 -0.000000
LeftFoot -13.463666 6.606428 -17.137341
LeftToeBase 19.799988 -0.000000 -0.000000
RightUpLeg -32.827443 13.913273 10.475239
RightLeg 100.411645 -0.000000 -0.000000
RightFoot 5.165749 -15.702735 17.542276
RightToeBase 14.549810 -0.000000 -0.000000
517
root 8.239158 32.360905 -4.556889 -5.018751 44.455563 -2.081291
Spine 3.147001 -9.188751 -4.903903
Head 7.472735 -18.286215 8.055162
LeftShoulder -9.706966 -8.090117 31.266753
LeftArm 1.158125 3.216485 -87.235856
LeftForeArm -7.647400 -0.000000 114.040996
LeftHand 11.038334 -0.000000 12.241536
LeftHandThumb1 -26.253704 0.000000 33.147579
RightShoulder -20.942376 -17.815327 -21.641107
RightArm 8.893408 -23.786750 95.081154
RightForeArm -14.416596 -0.000000 22.999780
RightHand 16.323386 0.000000 3.376592
RightHandThumb1 -24.326973 -0.000000 -32.862282
LeftUpLeg 9.275891 -15.692436 -8.545659
LeftLeg 1.088308 -0.000000 -0.000000
LeftFoot -13.337839 6.834019 -16.490471
LeftToeBase 20.108561 -0.000000 -0.000000
RightUpLeg -33.036697 14.068928 10.346590
RightLeg 98.297183 -0.000000 -0.000000
RightFoot 4.121178 -15.691893 18.106084
RightToeBase 15.380794 -0.000000 -0.000000
518
root 8.238043 32.361504 -4.547122 -5.125307 44.381607 -2.120547
Spine 3.268133 -9.153378 -4.928610
Head 7.474008 -18.340779 8.072866
LeftShoulder -9.663953 -8.113136 31.332399
LeftArm 1.174521 3.125444 -87.272002
LeftForeArm -7.647674 -0.000000 113.986625
LeftHand 11.006378 -0.000000 12.160000
LeftHandThumb1 -26.253704 0.000000 33.147579
RightShoulder -20.946796 -17.791347 -21.620939
RightArm 8.903535 -23.843398 95.041471
RightForeArm -14.462205 0.000000 22.982473
RightHand 16.284707 -0.000000 3.408012
RightHandThumb1 -24.326973 -0.000000 -32.862282
LeftUpLeg 9.363748 -15.640697 -8.541907
LeftLeg 1.094990 -0.000000 -0.000000
LeftFoot -13.148882 6.792446 -16.427061
LeftToeBase 20.140646 -0.000000 -0.000000
RightUpLeg -33.270620 14.171484 10.216111
RightLeg 96.109016 -0.000000 -0.000000
RightFoot 3.188723 -15.729965 18.763135
RightToeBase 15.892388 -0.000000 -0.000000
519
root 8.239735 32.362620 -4.533253 -5.254141 44.268103 -2.165155
Spine 3.390570 -9.085318 -4.948459
Head 7.520560 -18.277774 8.061449
LeftShoulder -9.644675 -8.179482 31.378965
LeftArm 1.156204 3.080844 -87.262551
LeftForeArm -7.686006 -0.000000 113.923983
LeftHand 11.071243 0.000000 12.214668
LeftHandThumb1 -26.253704 0.000000 33.147579
RightShoulder -20.967216 -17.767443 -21.584778
RightArm 8.919893 -23.935467 94.971345
RightForeArm -14.464039 -0.000000 22.968732
RightHand 16.316263 -0.000000 3.471680
RightHandThumb1 -24.326973 -0.000000 -32.862282
LeftUpLeg 9.506017 -15.530191 -8.539774
LeftLeg 1.044383 -0.000000 -0.000000
LeftFoot -13.042728 6.891121 -15.941256
LeftToeBase 20.569806 -0.000000 -0.000000
RightUpLeg -33.446624 14.293132 10.116640
RightLeg 93.871686 -0.000000 -0.000000
RightFoot 2.411935 -15.837561 19.148661
RightToeBase 16.541777 -0.000000 -0.000000
520
root 8.241321 32.363168 -4.520306 -5.361485 44.155089 -2.187420
Spine 3.489411 -9.017930 -4.973856
Head 7.614336 -18.392719 8.064198
LeftShoulder -9.597212 -8.245191 31.388094
LeftArm 1.140978 3.059437 -87.204819
LeftForeArm -7.838497 -0.000000 113.874763
LeftHand 11.158653 -0.000000 12.552306
LeftHandThumb1 -26.253704 0.000000 33.147579
RightShoulder -20.971479 -17.751013 -21.561051
RightArm 8.927976 -23.966934 94.929052
RightForeArm -14.702529 -0.000000 22.944782
RightHand 16.187173 -0.000000 2.692369
RightHandThumb1 -24.326973 -0.000000 -32.862282
LeftUpLeg 9.646542 -15.374823 -8.541393
LeftLeg 0.976981 -0.000000 -0.000000
LeftFoot -12.945658 6.991733 -15.435607
LeftToeBase 20.672427 -0.000000 -0.000000
RightUpLeg -33.605647 14.411315 10.001664
RightLeg 91.533966 -0.000000 -0.000000
RightFoot 1.887413 -15.831607 19.392436
RightToeBase 15.874871 -0.000000 -0.000000
521
root 8.243400 32.363589 -4.509226 -5.442978 44.052989 -2.207155
Spine 3.559890 -8.991087 -4.992079
Head 7.709056 -18.439009 8.050550
LeftShoulder -9.606543 -8.244502 31.387820
LeftArm 1.184408 2.985136 -87.128843
LeftForeArm -7.706322 -0.000000 113.800761
LeftHand 11.098045 -0.000000 12.310623
LeftHandThumb1 -26.253704 0.000000 33.147579
RightShoulder -20.982242 -17.754361 -21.525662
RightArm 8.973378 -24.022105 94.857114
RightForeArm -14.744690 0.000000 22.932541
RightHand 16.254734 -0.000000 2.649932
RightHandThumb1 -24.326973 -0.000000 -32.862282
LeftUpLeg 9.777002 -15.264517 -8.549591
LeftLeg 0.901604 -0.000000 -0.000000
LeftFoot -12.713071 7.212456 -14.766611
LeftToeBase 18.447886 -0.000000 -0.000000
RightUpLeg -33.786546 14.528726 9.869103
RightLeg 89.152582 -0.000000 -0.000000
RightFoot 1.446237 -15.879845 19.709790
RightToeBase 15.535811 -0.000000 -0.000000
